<svg xmlns="http://www.w3.org/2000/svg" width="700" height="210" viewBox="0 0 700 210" fill="none"><g clip-path="url(#clip0_4038_34498)"><path d="M110.067 44.5814C111.99 47.8112 113.69 50.8208 115.464 53.8303C123.227 67.2632 131.064 80.6227 138.753 94.0556C141.267 98.5333 143.78 103.011 145.85 107.709C148.216 113.141 148.734 118.866 147.92 124.738C147.773 125.913 147.699 127.087 147.477 128.262C147.403 128.849 147.107 129.436 146.885 130.097C146.516 129.95 146.368 129.877 146.294 129.803C142.154 122.39 138.088 114.902 133.873 107.562C125.815 93.5418 117.608 79.5217 109.476 65.5015C106.666 60.6569 103.783 55.7388 101.048 50.8208C100.382 49.6463 99.7908 50.1601 99.1254 50.7474C95.5766 53.9037 92.8411 57.7207 90.4753 61.7579C89.2924 63.6664 88.2574 65.6483 87.0745 67.6302C86.483 68.5845 86.483 69.4653 87.0745 70.493C99.0514 90.9727 110.881 111.526 122.858 132.005C125.741 136.923 128.402 141.988 129.659 147.567C131.803 157.55 129.955 166.799 124.706 175.461C123.301 177.736 121.749 179.865 120.122 182.14C120.492 182.14 120.713 182.214 120.935 182.14C136.387 178.176 149.399 161.881 149.251 146.026C149.251 143.31 150.212 141.915 152.061 140.3C162.337 131.638 167.512 120.628 166.995 107.195C166.773 100.735 164.407 94.8631 161.228 89.3578C154.944 78.3472 148.438 67.4834 142.154 56.4728C138.531 50.0867 133.06 46.5633 126.184 44.9484C121.379 43.774 116.499 43.6272 111.546 44.2144C111.176 44.2144 110.733 44.3612 110.067 44.5814Z" fill="#509B37"></path><path d="M124.927 148.491C123.596 143.353 121.304 138.948 118.791 134.691C117.682 132.782 116.499 130.874 115.538 128.965C114.946 127.791 114.133 127.277 112.728 127.277C93.1363 127.351 73.6182 127.351 54.0263 127.277C47.9638 127.277 41.9014 127.351 35.9129 126.984C24.3056 126.249 14.9162 121.038 7.96664 111.789C5.74868 108.853 4.1961 105.476 2.27387 102.32C2.05208 101.953 1.68242 101.586 1.31276 101.219C1.01703 101.659 0.647371 102.1 0.573439 102.54C-1.94025 118.615 3.90038 131.314 16.3209 141.444C17.2821 142.252 17.6517 142.986 17.6517 144.16C17.9475 155.097 21.718 164.566 29.5548 172.347C35.3954 178.146 42.4189 181.669 50.5514 182.991C52.5476 183.358 54.5438 183.431 56.5399 183.431C71.5481 183.505 86.4824 183.578 101.491 183.431C103.856 183.431 106.37 182.55 108.588 181.523C116.942 177.706 121.23 170.365 125.149 162.217C124.188 162.144 123.522 161.997 122.857 161.997C101.417 161.997 79.9764 161.85 58.5361 162.071C46.3373 162.144 36.1347 158.18 27.8543 149.372C27.0411 148.491 26.006 147.904 25.1189 147.17C25.2667 146.949 25.4146 146.803 25.4885 146.582C25.7842 146.582 26.08 146.509 26.3757 146.582C31.1073 147.904 35.839 148.564 40.7185 148.564C67.9994 148.564 95.3542 148.564 122.635 148.564C123.301 148.638 124.04 148.491 124.927 148.491Z" fill="#F45608"></path><path d="M16.4666 114.055C17.7235 111.926 18.9064 109.797 20.1632 107.669C30.144 90.5654 40.0509 73.3889 50.1057 56.2858C55.207 47.6975 62.8959 42.2657 72.4331 39.3295C72.7288 39.2561 73.0985 39.2561 73.5421 39.1827C73.3942 39.5497 73.3942 39.7699 73.2464 39.9167C68.0711 45.4954 64.966 52.3954 61.1955 58.8549C52.4715 73.6091 43.9693 88.5101 35.3193 103.338C32.4359 108.329 29.5526 113.247 26.6692 118.239C26.4474 118.679 26.2256 119.12 25.782 119.927C28.1479 120.514 30.2919 121.322 32.4359 121.542C37.8329 121.982 43.23 122.129 48.7009 122.202C49.3663 122.202 50.2535 121.322 50.6971 120.588C54.9852 113.321 59.1254 105.98 63.3395 98.7132C71.2502 85.0601 79.1609 71.3336 87.2195 57.7539C95.8695 43.1465 109.029 36.9806 125.886 38.2284C127.291 38.3018 128.695 38.5955 130.322 38.5221C130.026 38.155 129.73 37.788 129.361 37.4944C118.567 28.2455 106.22 25.0891 92.2469 28.4657C89.5853 29.1264 87.0716 30.4476 84.484 31.4019C83.8186 31.6221 82.9314 31.6955 82.34 31.4019C65.7792 23.1072 45.5958 27.1445 33.9146 41.3848C30.9573 44.9816 28.7393 49.239 26.3735 53.3496C20.9025 62.6719 15.5055 72.0676 9.9606 81.3899C7.00332 86.4548 6.55973 91.7399 7.81657 97.2452C9.22128 103.338 12.1786 108.696 15.8752 113.761C16.023 113.834 16.1709 113.908 16.4666 114.055Z" fill="#083897"></path><path d="M241.241 110.694H219.413L215.802 121.137H204.26L223.967 66.2549H236.765L256.472 121.137H244.852L241.241 110.694ZM238.257 101.901L230.327 78.9743L222.397 101.901H238.257ZM294.931 93.0284C298.019 93.6042 300.557 95.1483 302.546 97.6608C304.535 100.173 305.53 103.052 305.53 106.297C305.53 109.229 304.797 111.82 303.332 114.07C301.918 116.269 299.851 117.996 297.129 119.252C294.407 120.509 291.188 121.137 287.472 121.137H263.839V66.3334H286.451C290.167 66.3334 293.36 66.9354 296.03 68.1393C298.752 69.3432 300.793 71.0182 302.154 73.1642C303.567 75.3103 304.274 77.7442 304.274 80.4661C304.274 83.659 303.41 86.3285 301.683 88.4746C300.008 90.6207 297.757 92.1386 294.931 93.0284ZM274.831 88.9457H284.881C287.498 88.9457 289.513 88.3699 290.926 87.2184C292.34 86.0145 293.046 84.3133 293.046 82.1149C293.046 79.9165 292.34 78.2153 290.926 77.0114C289.513 75.8076 287.498 75.2056 284.881 75.2056H274.831V88.9457ZM285.901 112.186C288.571 112.186 290.638 111.558 292.104 110.302C293.622 109.045 294.381 107.266 294.381 104.963C294.381 102.607 293.596 100.775 292.025 99.4667C290.455 98.1057 288.335 97.4253 285.666 97.4253H274.831V112.186H285.901ZM347.895 110.694H326.068L322.456 121.137H310.914L330.622 66.2549H343.419L363.127 121.137H351.507L347.895 110.694ZM344.911 101.901L336.981 78.9743L329.051 101.901H344.911ZM367.823 93.6566C367.823 88.2652 369.027 83.4497 371.435 79.2099C373.895 74.9177 377.219 71.5939 381.407 69.2385C385.646 66.8307 390.383 65.6268 395.618 65.6268C401.742 65.6268 407.107 67.1971 411.713 70.3377C416.319 73.4783 419.538 77.8228 421.371 83.3711H408.73C407.473 80.754 405.694 78.7911 403.391 77.4825C401.14 76.174 398.523 75.5197 395.539 75.5197C392.346 75.5197 389.494 76.2786 386.981 77.7966C384.521 79.2622 382.584 81.3559 381.171 84.0778C379.81 86.7996 379.13 89.9925 379.13 93.6566C379.13 97.2682 379.81 100.461 381.171 103.235C382.584 105.957 384.521 108.077 386.981 109.595C389.494 111.061 392.346 111.793 395.539 111.793C398.523 111.793 401.14 111.139 403.391 109.831C405.694 108.47 407.473 106.481 408.73 103.863H421.371C419.538 109.464 416.319 113.835 411.713 116.975C407.159 120.064 401.794 121.608 395.618 121.608C390.383 121.608 385.646 120.43 381.407 118.075C377.219 115.667 373.895 112.343 371.435 108.103C369.027 103.863 367.823 99.0479 367.823 93.6566ZM464.363 110.694H442.536L438.925 121.137H427.383L447.09 66.2549H459.888L479.595 121.137H467.975L464.363 110.694ZM461.38 101.901L453.45 78.9743L445.52 101.901H461.38ZM542.965 66.3334V75.2056H528.361V121.137H517.369V75.2056H502.765V66.3334H542.965ZM561.977 75.2056V88.9457H580.428V97.6608H561.977V112.186H582.783V121.137H550.985V66.2549H582.783V75.2056H561.977ZM590.103 93.6566C590.103 88.2652 591.307 83.4497 593.715 79.2099C596.175 74.9177 599.499 71.5939 603.686 69.2385C607.926 66.8307 612.663 65.6268 617.897 65.6268C624.021 65.6268 629.386 67.1971 633.993 70.3377C638.599 73.4783 641.818 77.8228 643.65 83.3711H631.009C629.753 80.754 627.973 78.7911 625.67 77.4825C623.419 76.174 620.802 75.5197 617.819 75.5197C614.626 75.5197 611.773 76.2786 609.261 77.7966C606.8 79.2622 604.864 81.3559 603.45 84.0778C602.09 86.7996 601.409 89.9925 601.409 93.6566C601.409 97.2682 602.09 100.461 603.45 103.235C604.864 105.957 606.8 108.077 609.261 109.595C611.773 111.061 614.626 111.793 617.819 111.793C620.802 111.793 623.419 111.139 625.67 109.831C627.973 108.47 629.753 106.481 631.009 103.863H643.65C641.818 109.464 638.599 113.835 633.993 116.975C629.439 120.064 624.074 121.608 617.897 121.608C612.663 121.608 607.926 120.43 603.686 118.075C599.499 115.667 596.175 112.343 593.715 108.103C591.307 103.863 590.103 99.0479 590.103 93.6566ZM698.499 66.3334V121.137H687.507V97.8178H664.031V121.137H653.039V66.3334H664.031V88.8672H687.507V66.3334H698.499Z" fill="#083897"></path><path d="M248.088 136.67V152.953H245.417V136.67H248.088ZM258.109 139.833C259.124 139.833 260.03 140.043 260.826 140.465C261.639 140.887 262.271 141.512 262.724 142.34C263.177 143.167 263.404 144.167 263.404 145.339V152.953H260.756V145.737C260.756 144.581 260.467 143.698 259.889 143.089C259.311 142.464 258.522 142.152 257.523 142.152C256.523 142.152 255.727 142.464 255.133 143.089C254.555 143.698 254.266 144.581 254.266 145.737V152.953H251.595V140.043H254.266V141.519C254.703 140.988 255.258 140.575 255.93 140.278C256.617 139.981 257.343 139.833 258.109 139.833ZM273.324 139.833C274.339 139.833 275.245 140.043 276.042 140.465C276.854 140.887 277.487 141.512 277.94 142.34C278.393 143.167 278.619 144.167 278.619 145.339V152.953H275.972V145.737C275.972 144.581 275.683 143.698 275.105 143.089C274.527 142.464 273.738 142.152 272.738 142.152C271.739 142.152 270.942 142.464 270.348 143.089C269.771 143.698 269.482 144.581 269.482 145.737V152.953H266.811V140.043H269.482V141.519C269.919 140.988 270.473 140.575 271.145 140.278C271.832 139.981 272.559 139.833 273.324 139.833ZM287.626 153.164C286.407 153.164 285.306 152.891 284.322 152.344C283.338 151.782 282.565 151.001 282.003 150.001C281.44 148.986 281.159 147.814 281.159 146.487C281.159 145.175 281.448 144.011 282.026 142.996C282.604 141.98 283.393 141.199 284.392 140.653C285.392 140.106 286.509 139.833 287.743 139.833C288.977 139.833 290.094 140.106 291.093 140.653C292.093 141.199 292.882 141.98 293.46 142.996C294.038 144.011 294.327 145.175 294.327 146.487C294.327 147.799 294.03 148.962 293.436 149.978C292.843 150.993 292.03 151.782 291 152.344C289.984 152.891 288.86 153.164 287.626 153.164ZM287.626 150.844C288.313 150.844 288.953 150.68 289.547 150.352C290.156 150.024 290.648 149.532 291.023 148.876C291.398 148.22 291.585 147.424 291.585 146.487C291.585 145.549 291.406 144.761 291.046 144.12C290.687 143.464 290.211 142.972 289.617 142.644C289.024 142.316 288.383 142.152 287.696 142.152C287.009 142.152 286.368 142.316 285.775 142.644C285.197 142.972 284.736 143.464 284.392 144.12C284.049 144.761 283.877 145.549 283.877 146.487C283.877 147.877 284.228 148.954 284.931 149.72C285.65 150.47 286.548 150.844 287.626 150.844ZM301.957 150.563L305.613 140.043H308.447L303.527 152.953H300.341L295.444 140.043H298.302L301.957 150.563ZM309.576 146.44C309.576 145.143 309.842 143.995 310.373 142.996C310.919 141.996 311.654 141.223 312.575 140.676C313.512 140.114 314.543 139.833 315.668 139.833C316.683 139.833 317.566 140.036 318.315 140.442C319.081 140.832 319.69 141.324 320.143 141.918V140.043H322.837V152.953H320.143V151.032C319.69 151.641 319.073 152.149 318.292 152.555C317.511 152.961 316.621 153.164 315.621 153.164C314.512 153.164 313.497 152.883 312.575 152.321C311.654 151.743 310.919 150.946 310.373 149.931C309.842 148.9 309.576 147.736 309.576 146.44ZM320.143 146.487C320.143 145.596 319.955 144.823 319.581 144.167C319.221 143.511 318.745 143.011 318.151 142.668C317.558 142.324 316.917 142.152 316.23 142.152C315.543 142.152 314.902 142.324 314.309 142.668C313.715 142.996 313.231 143.488 312.856 144.144C312.497 144.784 312.317 145.549 312.317 146.44C312.317 147.33 312.497 148.111 312.856 148.783C313.231 149.454 313.715 149.97 314.309 150.329C314.918 150.673 315.558 150.844 316.23 150.844C316.917 150.844 317.558 150.673 318.151 150.329C318.745 149.985 319.221 149.486 319.581 148.83C319.955 148.158 320.143 147.377 320.143 146.487ZM329.462 142.222V149.368C329.462 149.853 329.571 150.204 329.79 150.423C330.024 150.626 330.414 150.727 330.961 150.727H332.601V152.953H330.492C329.29 152.953 328.368 152.672 327.728 152.11C327.087 151.547 326.767 150.634 326.767 149.368V142.222H325.244V140.043H326.767V136.834H329.462V140.043H332.601V142.222H329.462ZM336.422 138.333C335.938 138.333 335.532 138.169 335.203 137.841C334.875 137.513 334.711 137.107 334.711 136.623C334.711 136.139 334.875 135.732 335.203 135.404C335.532 135.076 335.938 134.912 336.422 134.912C336.89 134.912 337.289 135.076 337.617 135.404C337.945 135.732 338.109 136.139 338.109 136.623C338.109 137.107 337.945 137.513 337.617 137.841C337.289 138.169 336.89 138.333 336.422 138.333ZM337.734 140.043V152.953H335.063V140.043H337.734ZM346.84 153.164C345.622 153.164 344.521 152.891 343.537 152.344C342.553 151.782 341.78 151.001 341.217 150.001C340.655 148.986 340.374 147.814 340.374 146.487C340.374 145.175 340.663 144.011 341.241 142.996C341.819 141.98 342.607 141.199 343.607 140.653C344.607 140.106 345.723 139.833 346.957 139.833C348.191 139.833 349.308 140.106 350.308 140.653C351.308 141.199 352.096 141.98 352.674 142.996C353.252 144.011 353.541 145.175 353.541 146.487C353.541 147.799 353.244 148.962 352.651 149.978C352.057 150.993 351.245 151.782 350.214 152.344C349.199 152.891 348.074 153.164 346.84 153.164ZM346.84 150.844C347.528 150.844 348.168 150.68 348.762 150.352C349.371 150.024 349.863 149.532 350.238 148.876C350.612 148.22 350.8 147.424 350.8 146.487C350.8 145.549 350.62 144.761 350.261 144.12C349.902 143.464 349.425 142.972 348.832 142.644C348.238 142.316 347.598 142.152 346.911 142.152C346.223 142.152 345.583 142.316 344.989 142.644C344.411 142.972 343.951 143.464 343.607 144.12C343.263 144.761 343.092 145.549 343.092 146.487C343.092 147.877 343.443 148.954 344.146 149.72C344.864 150.47 345.763 150.844 346.84 150.844ZM362.695 139.833C363.71 139.833 364.616 140.043 365.413 140.465C366.225 140.887 366.858 141.512 367.311 142.34C367.764 143.167 367.99 144.167 367.99 145.339V152.953H365.343V145.737C365.343 144.581 365.054 143.698 364.476 143.089C363.898 142.464 363.109 142.152 362.109 142.152C361.11 142.152 360.313 142.464 359.719 143.089C359.141 143.698 358.853 144.581 358.853 145.737V152.953H356.182V140.043H358.853V141.519C359.29 140.988 359.844 140.575 360.516 140.278C361.203 139.981 361.93 139.833 362.695 139.833ZM380.857 155.601H378.186V134.186H380.857V155.601ZM396.531 153.117C395.438 153.117 394.454 152.93 393.579 152.555C392.704 152.164 392.017 151.618 391.517 150.915C391.017 150.212 390.767 149.392 390.767 148.455H393.626C393.688 149.158 393.962 149.735 394.446 150.188C394.946 150.641 395.641 150.868 396.531 150.868C397.453 150.868 398.171 150.649 398.687 150.212C399.202 149.759 399.46 149.181 399.46 148.478C399.46 147.931 399.296 147.486 398.968 147.143C398.655 146.799 398.257 146.533 397.773 146.346C397.304 146.159 396.648 145.955 395.805 145.737C394.743 145.456 393.876 145.175 393.204 144.893C392.548 144.597 391.986 144.144 391.517 143.534C391.049 142.925 390.814 142.113 390.814 141.098C390.814 140.161 391.049 139.341 391.517 138.638C391.986 137.935 392.642 137.396 393.485 137.021C394.329 136.646 395.305 136.459 396.414 136.459C397.992 136.459 399.28 136.857 400.28 137.654C401.295 138.435 401.857 139.512 401.967 140.887H399.015C398.968 140.293 398.687 139.786 398.171 139.364C397.656 138.942 396.976 138.731 396.133 138.731C395.367 138.731 394.743 138.927 394.258 139.317C393.774 139.708 393.532 140.27 393.532 141.004C393.532 141.504 393.68 141.918 393.977 142.246C394.29 142.558 394.68 142.808 395.149 142.996C395.617 143.183 396.258 143.386 397.07 143.605C398.148 143.902 399.022 144.198 399.694 144.495C400.381 144.792 400.959 145.253 401.428 145.877C401.912 146.487 402.154 147.307 402.154 148.338C402.154 149.165 401.928 149.946 401.475 150.68C401.037 151.415 400.389 152.008 399.53 152.461C398.687 152.898 397.687 153.117 396.531 153.117ZM416.997 140.043V152.953H414.326V151.43C413.904 151.961 413.35 152.383 412.663 152.695C411.991 152.992 411.273 153.141 410.507 153.141C409.492 153.141 408.578 152.93 407.766 152.508C406.969 152.086 406.337 151.461 405.868 150.634C405.415 149.806 405.189 148.806 405.189 147.635V140.043H407.836V147.236C407.836 148.392 408.125 149.282 408.703 149.907C409.281 150.516 410.07 150.821 411.07 150.821C412.069 150.821 412.858 150.516 413.436 149.907C414.029 149.282 414.326 148.392 414.326 147.236V140.043H416.997ZM425.207 153.164C424.192 153.164 423.278 152.984 422.466 152.625C421.669 152.25 421.037 151.75 420.568 151.126C420.1 150.485 419.85 149.775 419.818 148.994H422.583C422.63 149.54 422.888 150.001 423.356 150.376C423.841 150.735 424.442 150.915 425.16 150.915C425.91 150.915 426.488 150.774 426.894 150.493C427.316 150.196 427.527 149.821 427.527 149.368C427.527 148.884 427.292 148.525 426.824 148.291C426.371 148.056 425.645 147.799 424.645 147.517C423.677 147.252 422.888 146.994 422.279 146.744C421.669 146.494 421.138 146.112 420.685 145.596C420.248 145.081 420.029 144.401 420.029 143.558C420.029 142.871 420.232 142.246 420.638 141.684C421.045 141.106 421.623 140.653 422.372 140.325C423.138 139.997 424.012 139.833 424.996 139.833C426.465 139.833 427.644 140.207 428.534 140.957C429.44 141.691 429.924 142.699 429.987 143.98H427.316C427.269 143.402 427.035 142.941 426.613 142.597C426.191 142.254 425.621 142.082 424.903 142.082C424.2 142.082 423.661 142.215 423.286 142.48C422.911 142.746 422.724 143.097 422.724 143.534C422.724 143.878 422.849 144.167 423.099 144.401C423.348 144.636 423.653 144.823 424.012 144.964C424.372 145.089 424.903 145.253 425.606 145.456C426.543 145.706 427.308 145.963 427.902 146.229C428.511 146.479 429.034 146.854 429.471 147.353C429.909 147.853 430.135 148.517 430.151 149.345C430.151 150.079 429.948 150.735 429.542 151.313C429.136 151.891 428.558 152.344 427.808 152.672C427.074 153 426.207 153.164 425.207 153.164ZM436.153 142.222V149.368C436.153 149.853 436.262 150.204 436.481 150.423C436.715 150.626 437.106 150.727 437.653 150.727H439.293V152.953H437.184C435.981 152.953 435.06 152.672 434.419 152.11C433.779 151.547 433.459 150.634 433.459 149.368V142.222H431.936V140.043H433.459V136.834H436.153V140.043H439.293V142.222H436.153ZM440.864 146.44C440.864 145.143 441.13 143.995 441.661 142.996C442.207 141.996 442.941 141.223 443.863 140.676C444.8 140.114 445.831 139.833 446.956 139.833C447.971 139.833 448.854 140.036 449.603 140.442C450.369 140.832 450.978 141.324 451.431 141.918V140.043H454.125V152.953H451.431V151.032C450.978 151.641 450.361 152.149 449.58 152.555C448.799 152.961 447.909 153.164 446.909 153.164C445.8 153.164 444.785 152.883 443.863 152.321C442.941 151.743 442.207 150.946 441.661 149.931C441.13 148.9 440.864 147.736 440.864 146.44ZM451.431 146.487C451.431 145.596 451.243 144.823 450.868 144.167C450.509 143.511 450.033 143.011 449.439 142.668C448.846 142.324 448.205 142.152 447.518 142.152C446.831 142.152 446.19 142.324 445.597 142.668C445.003 142.996 444.519 143.488 444.144 144.144C443.785 144.784 443.605 145.549 443.605 146.44C443.605 147.33 443.785 148.111 444.144 148.783C444.519 149.454 445.003 149.97 445.597 150.329C446.206 150.673 446.846 150.844 447.518 150.844C448.205 150.844 448.846 150.673 449.439 150.329C450.033 149.985 450.509 149.486 450.868 148.83C451.243 148.158 451.431 147.377 451.431 146.487ZM458.992 138.333C458.508 138.333 458.102 138.169 457.774 137.841C457.446 137.513 457.282 137.107 457.282 136.623C457.282 136.139 457.446 135.732 457.774 135.404C458.102 135.076 458.508 134.912 458.992 134.912C459.461 134.912 459.859 135.076 460.187 135.404C460.515 135.732 460.679 136.139 460.679 136.623C460.679 137.107 460.515 137.513 460.187 137.841C459.859 138.169 459.461 138.333 458.992 138.333ZM460.304 140.043V152.953H457.633V140.043H460.304ZM470.325 139.833C471.34 139.833 472.246 140.043 473.042 140.465C473.855 140.887 474.487 141.512 474.94 142.34C475.393 143.167 475.62 144.167 475.62 145.339V152.953H472.972V145.737C472.972 144.581 472.683 143.698 472.105 143.089C471.527 142.464 470.738 142.152 469.739 142.152C468.739 142.152 467.943 142.464 467.349 143.089C466.771 143.698 466.482 144.581 466.482 145.737V152.953H463.811V140.043H466.482V141.519C466.919 140.988 467.474 140.575 468.146 140.278C468.833 139.981 469.559 139.833 470.325 139.833ZM478.136 146.44C478.136 145.143 478.402 143.995 478.933 142.996C479.48 141.996 480.214 141.223 481.135 140.676C482.072 140.114 483.103 139.833 484.228 139.833C485.243 139.833 486.126 140.036 486.876 140.442C487.641 140.832 488.25 141.324 488.703 141.918V140.043H491.397V152.953H488.703V151.032C488.25 151.641 487.633 152.149 486.852 152.555C486.071 152.961 485.181 153.164 484.181 153.164C483.072 153.164 482.057 152.883 481.135 152.321C480.214 151.743 479.48 150.946 478.933 149.931C478.402 148.9 478.136 147.736 478.136 146.44ZM488.703 146.487C488.703 145.596 488.516 144.823 488.141 144.167C487.781 143.511 487.305 143.011 486.711 142.668C486.118 142.324 485.478 142.152 484.79 142.152C484.103 142.152 483.463 142.324 482.869 142.668C482.275 142.996 481.791 143.488 481.416 144.144C481.057 144.784 480.878 145.549 480.878 146.44C480.878 147.33 481.057 148.111 481.416 148.783C481.791 149.454 482.275 149.97 482.869 150.329C483.478 150.673 484.119 150.844 484.79 150.844C485.478 150.844 486.118 150.673 486.711 150.329C487.305 149.985 487.781 149.486 488.141 148.83C488.516 148.158 488.703 147.377 488.703 146.487ZM497.577 141.965C498.03 141.34 498.647 140.832 499.428 140.442C500.224 140.036 501.107 139.833 502.075 139.833C503.215 139.833 504.246 140.106 505.168 140.653C506.089 141.199 506.816 141.98 507.347 142.996C507.878 143.995 508.143 145.143 508.143 146.44C508.143 147.736 507.878 148.9 507.347 149.931C506.816 150.946 506.082 151.743 505.144 152.321C504.223 152.883 503.2 153.164 502.075 153.164C501.075 153.164 500.185 152.969 499.404 152.578C498.639 152.188 498.03 151.688 497.577 151.079V152.953H494.906V135.615H497.577V141.965ZM505.425 146.44C505.425 145.549 505.238 144.784 504.863 144.144C504.504 143.488 504.02 142.996 503.411 142.668C502.817 142.324 502.177 142.152 501.489 142.152C500.818 142.152 500.177 142.324 499.568 142.668C498.975 143.011 498.49 143.511 498.115 144.167C497.756 144.823 497.577 145.596 497.577 146.487C497.577 147.377 497.756 148.158 498.115 148.83C498.49 149.486 498.975 149.985 499.568 150.329C500.177 150.673 500.818 150.844 501.489 150.844C502.177 150.844 502.817 150.673 503.411 150.329C504.02 149.97 504.504 149.454 504.863 148.783C505.238 148.111 505.425 147.33 505.425 146.44ZM512.144 138.333C511.659 138.333 511.253 138.169 510.925 137.841C510.597 137.513 510.433 137.107 510.433 136.623C510.433 136.139 510.597 135.732 510.925 135.404C511.253 135.076 511.659 134.912 512.144 134.912C512.612 134.912 513.01 135.076 513.338 135.404C513.666 135.732 513.83 136.139 513.83 136.623C513.83 137.107 513.666 137.513 513.338 137.841C513.01 138.169 512.612 138.333 512.144 138.333ZM513.456 140.043V152.953H510.785V140.043H513.456ZM519.633 135.615V152.953H516.962V135.615H519.633ZM524.499 138.333C524.015 138.333 523.609 138.169 523.281 137.841C522.953 137.513 522.789 137.107 522.789 136.623C522.789 136.139 522.953 135.732 523.281 135.404C523.609 135.076 524.015 134.912 524.499 134.912C524.968 134.912 525.366 135.076 525.694 135.404C526.022 135.732 526.186 136.139 526.186 136.623C526.186 137.107 526.022 137.513 525.694 137.841C525.366 138.169 524.968 138.333 524.499 138.333ZM525.811 140.043V152.953H523.14V140.043H525.811ZM532.434 142.222V149.368C532.434 149.853 532.543 150.204 532.762 150.423C532.996 150.626 533.387 150.727 533.933 150.727H535.573V152.953H533.465C532.262 152.953 531.341 152.672 530.7 152.11C530.06 151.547 529.74 150.634 529.74 149.368V142.222H528.217V140.043H529.74V136.834H532.434V140.043H535.573V142.222H532.434ZM549.656 140.043L541.737 159.021H538.972L541.597 152.742L536.512 140.043H539.488L543.119 149.884L546.892 140.043H549.656ZM561.132 155.601H558.461V134.186H561.132V155.601ZM576.806 153.117C575.713 153.117 574.729 152.93 573.854 152.555C572.979 152.164 572.292 151.618 571.792 150.915C571.292 150.212 571.042 149.392 571.042 148.455H573.901C573.963 149.158 574.237 149.735 574.721 150.188C575.221 150.641 575.916 150.868 576.806 150.868C577.728 150.868 578.446 150.649 578.962 150.212C579.477 149.759 579.735 149.181 579.735 148.478C579.735 147.931 579.571 147.486 579.243 147.143C578.93 146.799 578.532 146.533 578.048 146.346C577.579 146.159 576.923 145.955 576.08 145.737C575.018 145.456 574.151 145.175 573.479 144.893C572.823 144.597 572.261 144.144 571.792 143.534C571.324 142.925 571.089 142.113 571.089 141.098C571.089 140.161 571.324 139.341 571.792 138.638C572.261 137.935 572.917 137.396 573.76 137.021C574.604 136.646 575.58 136.459 576.689 136.459C578.266 136.459 579.555 136.857 580.555 137.654C581.57 138.435 582.132 139.512 582.242 140.887H579.29C579.243 140.293 578.962 139.786 578.446 139.364C577.931 138.942 577.251 138.731 576.408 138.731C575.642 138.731 575.018 138.927 574.533 139.317C574.049 139.708 573.807 140.27 573.807 141.004C573.807 141.504 573.955 141.918 574.252 142.246C574.565 142.558 574.955 142.808 575.424 142.996C575.892 143.183 576.533 143.386 577.345 143.605C578.423 143.902 579.297 144.198 579.969 144.495C580.656 144.792 581.234 145.253 581.703 145.877C582.187 146.487 582.429 147.307 582.429 148.338C582.429 149.165 582.203 149.946 581.75 150.68C581.312 151.415 580.664 152.008 579.805 152.461C578.962 152.898 577.962 153.117 576.806 153.117ZM597.413 146.182C597.413 146.666 597.381 147.104 597.319 147.494H587.455C587.533 148.525 587.916 149.353 588.603 149.978C589.29 150.602 590.134 150.915 591.134 150.915C592.571 150.915 593.586 150.313 594.179 149.111H597.061C596.671 150.298 595.96 151.274 594.929 152.039C593.914 152.789 592.649 153.164 591.134 153.164C589.9 153.164 588.791 152.891 587.807 152.344C586.838 151.782 586.073 151.001 585.51 150.001C584.964 148.986 584.69 147.814 584.69 146.487C584.69 145.159 584.956 143.995 585.487 142.996C586.034 141.98 586.791 141.199 587.76 140.653C588.744 140.106 589.868 139.833 591.134 139.833C592.352 139.833 593.437 140.098 594.39 140.629C595.343 141.16 596.085 141.91 596.616 142.878C597.147 143.831 597.413 144.932 597.413 146.182ZM594.625 145.339C594.609 144.354 594.258 143.566 593.57 142.972C592.883 142.379 592.032 142.082 591.016 142.082C590.095 142.082 589.306 142.379 588.65 142.972C587.994 143.55 587.604 144.339 587.479 145.339H594.625ZM599.151 146.487C599.151 145.159 599.416 143.995 599.947 142.996C600.494 141.98 601.244 141.199 602.197 140.653C603.15 140.106 604.243 139.833 605.477 139.833C607.039 139.833 608.327 140.207 609.343 140.957C610.374 141.691 611.069 142.746 611.428 144.12H608.546C608.312 143.48 607.937 142.98 607.422 142.621C606.906 142.261 606.258 142.082 605.477 142.082C604.383 142.082 603.509 142.472 602.853 143.253C602.212 144.019 601.892 145.096 601.892 146.487C601.892 147.877 602.212 148.962 602.853 149.743C603.509 150.524 604.383 150.915 605.477 150.915C607.023 150.915 608.046 150.235 608.546 148.876H611.428C611.053 150.188 610.35 151.235 609.319 152.016C608.288 152.781 607.008 153.164 605.477 153.164C604.243 153.164 603.15 152.891 602.197 152.344C601.244 151.782 600.494 151.001 599.947 150.001C599.416 148.986 599.151 147.814 599.151 146.487ZM625.781 140.043V152.953H623.11V151.43C622.688 151.961 622.134 152.383 621.447 152.695C620.775 152.992 620.057 153.141 619.291 153.141C618.276 153.141 617.362 152.93 616.55 152.508C615.753 152.086 615.121 151.461 614.652 150.634C614.199 149.806 613.973 148.806 613.973 147.635V140.043H616.62V147.236C616.62 148.392 616.909 149.282 617.487 149.907C618.065 150.516 618.854 150.821 619.853 150.821C620.853 150.821 621.642 150.516 622.22 149.907C622.813 149.282 623.11 148.392 623.11 147.236V140.043H625.781ZM631.976 141.918C632.367 141.262 632.882 140.754 633.523 140.395C634.179 140.02 634.952 139.833 635.842 139.833V142.597H635.163C634.116 142.597 633.32 142.863 632.773 143.394C632.242 143.925 631.976 144.846 631.976 146.159V152.953H629.305V140.043H631.976V141.918ZM639.656 138.333C639.172 138.333 638.766 138.169 638.438 137.841C638.11 137.513 637.946 137.107 637.946 136.623C637.946 136.139 638.11 135.732 638.438 135.404C638.766 135.076 639.172 134.912 639.656 134.912C640.125 134.912 640.523 135.076 640.851 135.404C641.179 135.732 641.343 136.139 641.343 136.623C641.343 137.107 641.179 137.513 640.851 137.841C640.523 138.169 640.125 138.333 639.656 138.333ZM640.968 140.043V152.953H638.297V140.043H640.968ZM647.591 142.222V149.368C647.591 149.853 647.7 150.204 647.919 150.423C648.153 150.626 648.544 150.727 649.091 150.727H650.731V152.953H648.622C647.419 152.953 646.498 152.672 645.857 152.11C645.217 151.547 644.897 150.634 644.897 149.368V142.222H643.374V140.043H644.897V136.834H647.591V140.043H650.731V142.222H647.591ZM664.814 140.043L656.894 159.021H654.13L656.754 152.742L651.67 140.043H654.645L658.277 149.884L662.049 140.043H664.814Z" fill="#1A1C1C"></path></g><defs><clipPath id="clip0_4038_34498"><rect width="700" height="210" fill="white"></rect></clipPath></defs></svg>