<svg xmlns="http://www.w3.org/2000/svg" width="75" height="75" viewBox="0 0 75 75" fill="none"><path fill-rule="evenodd" clip-rule="evenodd" d="M31 39.3C30.6 39.2 30.3 38.8 30.4 38.3C30.5 37.9 30.9 37.6 31.4 37.7C32.5 38 33.4 38.6 34.1 39.5C34.7 40.3 35.1 41.4 35.1 42.5C35.1 42.8 35.1 43.2 35 43.5C34.9 43.8 34.8 44.2 34.7 44.5C34.5 44.9 34.1 45.1 33.6 44.9C33.2 44.7 33 44.3 33.2 43.8C33.3 43.6 33.4 43.4 33.4 43.1C33.4 42.9 33.5 42.7 33.5 42.4C33.5 41.6 33.2 40.9 32.8 40.3C32.4 39.9 31.7 39.4 31 39.3ZM29.7 25.9C29.3 25.8 29 25.4 29.1 24.9C29.2 24.5 29.6 24.2 30.1 24.3C31.2 24.6 32.1 25.2 32.8 26.1C33.4 26.9 33.8 28 33.8 29.1C33.8 29.5 33.8 29.8 33.7 30.1C33.6 30.4 33.5 30.8 33.4 31.1C33.2 31.5 32.7 31.7 32.3 31.5C31.9 31.3 31.7 30.8 31.9 30.4C32 30.2 32.1 30 32.1 29.8C32.1 29.6 32.2 29.3 32.2 29.1C32.2 28.3 31.9 27.6 31.5 27C31.1 26.5 30.5 26.1 29.7 25.9ZM36.7 34.4C36.5 34.6 36.2 34.7 36 34.9C35.7 35.1 35.4 35.2 35.1 35.3C34.8 35.4 34.4 35.5 34.1 35.5C33.7 35.5 33.3 35.2 33.2 34.8C33.1 34.4 33.5 34 33.9 33.9C34.1 33.9 34.3 33.8 34.6 33.8C34.8 33.7 35 33.6 35.2 33.5C35.6 33.3 35.9 33 36.2 32.7C36.4 32.4 36.6 32.1 36.7 31.8V22.8C36.7 22.1 36.4 21.4 35.9 20.9C35.4 20.4 34.8 20.1 34 20.1C33.3 20.1 32.6 20.4 32.1 20.9C31.6 21.4 31.3 22 31.3 22.8C31.3 23.2 30.9 23.6 30.5 23.6C30.3 23.6 30 23.5 29.9 23.3C29.7 23.1 29.5 23 29.3 23C29 22.9 28.7 22.9 28.4 22.9C27.8 22.9 27.3 23.1 26.9 23.5C26.5 23.9 26.3 24.4 26.3 25C26.3 25.6 26.5 26.1 26.9 26.5C27.3 26.9 27.8 27.1 28.4 27.1C28.8 27.1 29.2 27.5 29.2 27.9C29.2 28.3 28.8 28.7 28.4 28.7C27.4 28.7 26.6 28.3 25.9 27.7C25.4 27.9 24.9 28.3 24.5 28.8C24.1 29.4 23.8 30.1 23.8 30.9C23.8 31 23.8 31.1 23.8 31.2C24.5 30.8 25.4 30.6 26.2 30.6C27.6 30.6 28.8 31.2 29.7 32.1C30.6 33 31.2 34.3 31.2 35.6C31.2 36 30.8 36.4 30.4 36.4C30 36.4 29.6 36 29.6 35.6C29.6 34.7 29.2 33.8 28.6 33.2C28 32.6 27.1 32.2 26.2 32.2C25.3 32.2 24.4 32.6 23.8 33.2C23.2 33.8 22.8 34.7 22.8 35.6C22.8 36.3 23 37 23.4 37.5C23.8 38 24.3 38.5 24.9 38.7H25C25.4 38.9 25.6 39.4 25.4 39.8C25.3 40 25.2 40.2 25.2 40.4C25.2 40.6 25.1 40.8 25.1 41C25.1 41.8 25.4 42.5 25.9 43C26.4 43.5 27.1 43.8 27.9 43.8C28.4 43.8 28.9 43.7 29.3 43.4C29.7 43.1 30.1 42.8 30.3 42.3C30.5 41.9 31 41.8 31.4 42C31.8 42.2 31.9 42.7 31.7 43.1C31.3 43.8 30.7 44.4 30.1 44.8C29.4 45.2 28.7 45.4 27.9 45.4C27.9 45.4 27.9 45.4 27.9 45.5C27.9 45.7 27.8 45.9 27.8 46.1C27.8 46.8 28.1 47.5 28.6 47.9C29.1 48.4 29.7 48.7 30.4 48.7C30.5 48.7 30.6 48.7 30.6 48.7C30.7 48.7 30.8 48.7 30.8 48.7C31.1 48.6 31.5 48.8 31.6 49.1C31.8 49.5 32.2 49.8 32.5 50C32.9 50.2 33.3 50.3 33.8 50.3C34.5 50.3 35.2 50 35.7 49.5C36.2 49 36.5 48.4 36.5 47.6L36.7 34.4ZM49.9 26.3C50.1 25.9 50.2 25.4 50.2 24.9C50.2 23.9 49.8 23 49.1 22.3C48.4 21.6 47.5 21.2 46.5 21.2C46 21.2 45.5 21.3 45.1 21.4H45C44.8 20.8 44.4 20.2 44 19.7C43.2 18.9 42.2 18.5 41 18.5C39.8 18.5 38.8 19 38 19.7C37.8 19.9 37.7 20 37.6 20.2C37.5 20 37.3 19.8 37.2 19.7C36.4 18.9 35.4 18.5 34.2 18.5C33 18.5 32 19 31.2 19.7C30.7 20.2 30.4 20.7 30.2 21.4H30.1C29.7 21.2 29.2 21.2 28.7 21.2C27.7 21.2 26.8 21.6 26.1 22.3C25.4 23 25 23.9 25 24.9C25 25.4 25.1 25.9 25.3 26.3C24.6 26.6 24 27.1 23.6 27.7C23 28.5 22.6 29.6 22.6 30.7C22.6 31 22.6 31.4 22.7 31.7C22.7 31.9 22.8 32 22.8 32.2C22.1 33.1 21.6 34.2 21.6 35.4C21.6 36.4 21.9 37.4 22.4 38.2C22.8 38.8 23.3 39.3 24 39.7C24 39.8 24 39.8 24 39.9C23.9 40.2 23.9 40.5 23.9 40.9C23.9 42.1 24.4 43.2 25.2 44C25.6 44.4 26.1 44.8 26.7 45C26.6 45.3 26.6 45.6 26.6 46C26.6 47.2 27.1 48.2 27.8 49C28.6 49.8 29.6 50.2 30.8 50.2C30.9 50.2 30.9 50.2 31 50.2C31.3 50.6 31.8 51 32.2 51.2C32.8 51.5 33.5 51.7 34.3 51.7C35.5 51.7 36.5 51.2 37.3 50.5C37.5 50.3 37.6 50.2 37.7 50C37.8 50.2 38 50.4 38.1 50.5C38.9 51.3 39.9 51.7 41.1 51.7C41.8 51.7 42.5 51.5 43.2 51.2C43.7 50.9 44.1 50.6 44.4 50.2C44.5 50.2 44.5 50.2 44.6 50.2C45.8 50.2 46.8 49.7 47.6 49C48.4 48.2 48.8 47.2 48.8 46C48.8 45.7 48.8 45.4 48.7 45C49.3 44.8 49.8 44.4 50.2 44C51 43.2 51.5 42.1 51.5 40.9C51.5 40.6 51.5 40.2 51.4 39.9C51.4 39.8 51.4 39.8 51.4 39.7C52 39.3 52.6 38.8 53 38.2C53.5 37.4 53.8 36.4 53.8 35.4C53.8 34.2 53.4 33 52.6 32.2C52.6 32 52.7 31.9 52.7 31.7C52.8 31.4 52.8 31 52.8 30.7C52.8 29.6 52.4 28.5 51.8 27.7C51.2 27.1 50.6 26.6 49.9 26.3ZM43.6 37.7C44 37.6 44.5 37.8 44.6 38.3C44.7 38.7 44.5 39.2 44 39.3C43.3 39.5 42.6 39.9 42.2 40.5C41.8 41.1 41.5 41.8 41.5 42.6C41.5 42.8 41.5 43.1 41.6 43.3C41.6 43.5 41.7 43.7 41.8 44C42 44.4 41.8 44.9 41.4 45.1C41 45.3 40.5 45.1 40.3 44.7C40.2 44.4 40.1 44.1 40 43.7C39.9 43.4 39.9 43 39.9 42.7C39.9 41.6 40.3 40.5 40.9 39.7C41.6 38.6 42.5 38 43.6 37.7ZM44.8 24.3C45.2 24.2 45.7 24.4 45.8 24.9C45.9 25.3 45.7 25.8 45.2 25.9C44.5 26.1 43.8 26.5 43.4 27.1C43 27.7 42.7 28.4 42.7 29.2C42.7 29.4 42.7 29.7 42.8 29.9C42.8 30.1 42.9 30.3 43 30.5C43.2 30.9 43 31.4 42.6 31.6C42.2 31.8 41.7 31.6 41.5 31.2C41.4 30.9 41.3 30.6 41.2 30.2C41.1 29.9 41.1 29.5 41.1 29.2C41.1 28.1 41.5 27 42.1 26.2C42.8 25.3 43.8 24.6 44.8 24.3ZM38.3 31.8V22.8C38.3 22.1 38.6 21.4 39.1 20.9C39.6 20.4 40.2 20.1 41 20.1C41.7 20.1 42.4 20.4 42.9 20.9C43.4 21.4 43.7 22 43.7 22.8C43.7 23.2 44.1 23.6 44.5 23.6C44.7 23.6 45 23.5 45.1 23.3C45.3 23.1 45.5 23 45.7 23C46 22.9 46.3 22.9 46.6 22.9C47.2 22.9 47.7 23.1 48.1 23.5C48.5 23.9 48.7 24.4 48.7 25C48.7 25.6 48.5 26.1 48.1 26.5C47.7 26.9 47.2 27.1 46.6 27.1C46.2 27.1 45.8 27.5 45.8 27.9C45.8 28.3 46.2 28.7 46.6 28.7C47.6 28.7 48.4 28.3 49.1 27.7C49.6 27.9 50.1 28.3 50.5 28.8C50.9 29.4 51.2 30.1 51.2 30.9C51.2 31 51.2 31.1 51.2 31.2C50.5 30.8 49.6 30.6 48.8 30.6C47.4 30.6 46.2 31.2 45.3 32.1C44.4 33 43.8 34.3 43.8 35.6C43.8 36 44.2 36.4 44.6 36.4C45 36.4 45.4 36 45.4 35.6C45.4 34.7 45.8 33.8 46.4 33.2C47 32.6 47.9 32.2 48.8 32.2C49.7 32.2 50.6 32.6 51.2 33.2C51.8 33.8 52.2 34.7 52.2 35.6C52.2 36.3 52 37 51.6 37.5C51.2 38 50.7 38.5 50.1 38.7H50C49.6 38.9 49.4 39.4 49.6 39.8C49.7 40 49.8 40.2 49.8 40.4C49.8 40.6 49.9 40.8 49.9 41C49.9 41.8 49.6 42.5 49.1 43C48.6 43.5 47.9 43.8 47.1 43.8C46.6 43.8 46.1 43.7 45.7 43.4C45.3 43.1 44.9 42.8 44.7 42.3C44.5 41.9 44 41.8 43.6 42C43.2 42.2 43.1 42.7 43.3 43.1C43.7 43.8 44.3 44.4 44.9 44.8C45.6 45.2 46.3 45.4 47.1 45.4C47.1 45.4 47.1 45.4 47.1 45.5C47.1 45.7 47.2 45.9 47.2 46.1C47.2 46.8 46.9 47.5 46.4 47.9C45.9 48.4 45.3 48.7 44.6 48.7C44.5 48.7 44.4 48.7 44.4 48.7C44.3 48.7 44.2 48.7 44.2 48.7C43.9 48.6 43.5 48.8 43.4 49.1C43.2 49.5 42.8 49.8 42.5 50C42.1 50.2 41.7 50.3 41.2 50.3C40.5 50.3 39.8 50 39.3 49.5C38.8 49 38.5 48.4 38.5 47.6V34.4C38.7 34.6 39 34.7 39.2 34.9C39.5 35.1 39.8 35.2 40.1 35.3C40.4 35.4 40.8 35.5 41.1 35.5C41.5 35.5 41.9 35.2 42 34.8C42 34.4 41.7 34 41.3 33.9C41.1 33.9 40.9 33.8 40.6 33.8C40.4 33.7 40.2 33.6 40 33.5C39.6 33.3 39.3 33 39 32.7C38.6 32.4 38.4 32.1 38.3 31.8ZM5.8 36.1C5.4 36.1 5 35.7 5 35.3C5 34.9 5.4 34.5 5.8 34.5H10.3C10.7 34.5 11.1 34.9 11.1 35.3C11.1 35.7 10.7 36 10.3 36L5.8 36.1ZM36.5 3.3C36.5 2.9 36.9 2.5 37.3 2.5C37.7 2.5 38.1 2.9 38.1 3.3V7.8C38.1 8.2 37.7 8.6 37.3 8.6C36.9 8.6 36.5 8.2 36.5 7.8V3.3ZM20.8 8.1C20.5 7.7 20.7 7.2 21 7C21.4 6.8 21.9 6.9 22.1 7.3L24.4 11.2C24.6 11.6 24.5 12.1 24.1 12.3C23.7 12.5 23.2 12.4 23 12L20.8 8.1ZM9.5 20.1C9.1 19.9 9 19.4 9.2 19C9.4 18.6 9.9 18.5 10.3 18.7L14.2 20.9C14.6 21.1 14.7 21.6 14.5 22C14.3 22.4 13.8 22.5 13.4 22.3L9.5 20.1ZM10.5 51.8C10.1 52 9.6 51.9 9.4 51.5C9.2 51.1 9.3 50.6 9.7 50.4L13.6 48.1C14 47.9 14.5 48 14.7 48.4C14.9 48.8 14.8 49.3 14.4 49.5L10.5 51.8ZM65.5 50C65.9 50.2 66 50.7 65.8 51.1C65.6 51.5 65.1 51.6 64.7 51.4L60.8 49.2C60.4 49 60.3 48.5 60.5 48.1C60.7 47.7 61.2 47.6 61.6 47.8L65.5 50ZM69.2 34.1C69.6 34.1 70 34.5 70 34.9C70 35.3 69.6 35.7 69.2 35.7H64.7C64.3 35.7 63.9 35.3 63.9 34.9C63.9 34.5 64.3 34.1 64.7 34.1H69.2ZM64.5 18.3C64.9 18.1 65.4 18.2 65.6 18.6C65.8 19 65.7 19.5 65.3 19.7L61.4 22C61 22.2 60.5 22.1 60.3 21.7C60.1 21.3 60.2 20.8 60.6 20.6L64.5 18.3ZM52.5 7.1C52.7 6.7 53.2 6.6 53.6 6.8C54 7 54.1 7.5 53.9 7.9L51.7 11.8C51.5 12.2 51 12.3 50.6 12.1C50.2 11.9 50.1 11.4 50.3 11L52.5 7.1ZM49.2 57.4H26.1C25.7 57.4 25.4 57.5 25.2 57.8C25 58 24.8 58.4 24.8 58.7V59.7C24.8 60.1 24.9 60.4 25.2 60.6C25.4 60.8 25.8 61 26.1 61H49.2C49.6 61 49.9 60.9 50.1 60.6C50.3 60.4 50.5 60 50.5 59.7V58.7C50.5 58.3 50.4 58 50.1 57.8C49.9 57.5 49.6 57.4 49.2 57.4ZM26.5 55.8H48.7C48.9 55.6 49 55.4 49.1 55.1C49.2 54.8 49.3 54.5 49.3 54.2C49.3 53.1 49.6 52 50 51C50.4 50 51 49.1 51.8 48.3C53.6 46.5 55 44.3 56 41.8C56.9 39.5 57.4 36.9 57.4 34.2C57.4 28.7 55.1 23.7 51.5 20.1C47.9 16.5 42.8 14.3 37.3 14.3C31.8 14.3 26.8 16.6 23.2 20.2C19.6 23.8 17.4 28.9 17.4 34.4C17.4 37.1 18 39.6 18.9 41.9C19.9 44.3 21.4 46.5 23.2 48.3C24 49.1 24.6 50 25.1 51C25.5 52 25.8 53.1 25.8 54.2C25.8 54.5 25.9 54.8 26 55.1C26.3 55.4 26.4 55.6 26.5 55.8ZM28.8 62.6C28.4 62.6 28 62.8 27.8 63C27.5 63.3 27.4 63.6 27.4 64V65.1C27.4 65.5 27.6 65.9 27.8 66.1C28.1 66.4 28.4 66.5 28.8 66.5H46.5C46.9 66.5 47.3 66.3 47.5 66.1C47.8 65.8 47.9 65.5 47.9 65.1V64C47.9 63.6 47.7 63.2 47.5 63C47.2 62.7 46.9 62.6 46.5 62.6H28.8ZM44.5 68.3H31C31.1 68.9 31.5 69.5 31.9 70C32.5 70.6 33.3 70.9 34.2 70.9H41.3C42.2 70.9 43 70.5 43.6 69.9C44 69.4 44.3 68.9 44.5 68.3ZM49.2 62.6C50 62.6 50.7 62.3 51.2 61.8C51.7 61.3 52 60.6 52 59.8V58.8C52 58 51.7 57.3 51.2 56.8C51 56.6 50.7 56.4 50.3 56.2C50.4 56.1 50.4 56 50.4 55.9C50.6 55.4 50.7 54.9 50.7 54.4C50.7 53.5 50.9 52.6 51.3 51.8C51.7 51 52.2 50.2 52.8 49.5C54.7 47.5 56.3 45.1 57.3 42.5C58.3 40 58.9 37.2 58.8 34.3C58.8 28.3 56.3 23 52.4 19.1C48.5 15.2 43.1 12.8 37.1 12.9C31.1 12.9 25.8 15.4 21.9 19.3C18 23.2 15.6 28.6 15.7 34.6C15.7 37.5 16.3 40.2 17.3 42.7C18.4 45.3 20 47.6 21.9 49.6C22.6 50.3 23.1 51 23.5 51.8C23.9 52.6 24.1 53.5 24.1 54.4C24.1 54.9 24.3 55.4 24.5 55.9C24.5 56 24.6 56 24.6 56.1C24.3 56.2 24.1 56.4 23.9 56.6C23.4 57.1 23.1 57.8 23.1 58.6V59.6C23.1 60.4 23.4 61.1 23.9 61.6C24.4 62.1 25.1 62.4 25.9 62.4C25.7 62.8 25.5 63.3 25.5 63.9V65C25.5 65.8 25.8 66.6 26.4 67.2C27 67.8 27.7 68.1 28.6 68.1H29.2C29.3 69.2 29.9 70.2 30.6 70.9C31.5 71.8 32.7 72.3 34 72.3H41.1C42.4 72.3 43.6 71.7 44.5 70.9C45.2 70.2 45.7 69.2 45.8 68.2H46.3C47.1 68.2 47.9 67.9 48.5 67.3C49.1 66.7 49.4 66 49.4 65.1V64C49.6 63.5 49.5 63 49.2 62.6Z" fill="#0D5EF4" stroke="#0D5EF4" stroke-width="0.5"></path></svg>