<svg xmlns="http://www.w3.org/2000/svg" width="75" height="75" viewBox="0 0 75 75" fill="none"><path d="M39.1008 72.9996C34.8008 72.9996 29.7008 72.4996 20.1008 66.8996L19.8008 66.6996L19.5008 67.0996C19.5008 67.1996 19.4008 67.1996 19.4008 67.2996C19.1008 67.5996 18.7008 67.7996 18.2008 67.7996H8.00078C7.10078 67.7996 6.30078 66.9996 6.30078 66.0996V46.7996C6.30078 45.8996 7.10078 45.0996 8.00078 45.0996H18.2008C19.1008 45.0996 19.9008 45.8996 19.9008 46.7996V47.6996H20.2008C23.3008 48.0996 29.7008 49.3996 36.8008 53.1996H36.9008C37.7008 53.2996 38.5008 53.2996 39.4008 53.2996C43.3008 53.3996 48.2008 53.3996 51.4008 57.3996L51.6008 57.5996L51.9008 57.4996C53.0008 56.9996 54.6008 55.9996 55.8008 55.2996C58.8008 53.4996 61.8008 51.6996 64.0008 51.4996C64.4008 51.3996 64.8008 51.3996 65.2008 51.3996C66.4008 51.3996 69.2008 51.5996 70.4008 53.7996C71.5008 55.6996 71.0008 58.2996 68.9008 60.5996C64.5008 65.5996 51.0008 70.1996 46.9008 71.4996C44.9008 72.2996 41.2008 72.9996 39.1008 72.9996ZM19.9008 64.8996L20.1008 65.0996C30.7008 71.4996 35.6008 71.4996 39.1008 71.4996C40.9008 71.4996 44.3008 70.8996 46.6008 70.1996C54.4008 67.6996 64.6008 63.4996 67.9008 59.7996C69.5008 57.9996 70.0008 56.0996 69.2008 54.7996C68.4008 53.3996 66.1008 53.1996 65.2008 53.1996C64.9008 53.1996 64.5008 53.1996 64.3008 53.2996C62.5008 53.4996 59.5008 55.2996 56.9008 56.7996C55.2008 57.7996 53.0008 59.0996 51.8008 59.4996H51.7008H51.6008H51.5008H32.7008C32.3008 59.4996 31.9008 59.0996 31.9008 58.6996C31.9008 58.2996 32.3008 57.8996 32.7008 57.8996H49.8008L48.9008 57.1996C46.1008 55.0996 42.5008 54.9996 39.6008 54.9996C38.4008 54.9996 37.4008 54.9996 36.6008 54.8996C36.5008 54.8996 36.4008 54.8996 36.3008 54.7996C29.5008 51.0996 23.4008 49.7996 20.3008 49.3996L19.8008 49.2996V64.8996H19.9008ZM7.90078 66.2996H18.4008V65.7996V65.6996C18.3008 65.4996 18.3008 65.2996 18.4008 65.0996L18.3008 46.6996H7.90078V66.2996Z" fill="#509B37" stroke="#509B37" stroke-width="0.5"></path><path d="M13.7992 64.6004C12.0992 64.6004 10.6992 63.2004 10.6992 61.5004C10.6992 59.8004 12.0992 58.4004 13.7992 58.4004C15.4992 58.4004 16.8992 59.8004 16.8992 61.5004C16.8992 63.2004 15.4992 64.6004 13.7992 64.6004ZM13.7992 59.8004C12.8992 59.8004 12.0992 60.6004 12.0992 61.5004C12.0992 62.4004 12.8992 63.2004 13.7992 63.2004C14.6992 63.2004 15.4992 62.4004 15.4992 61.5004C15.4992 60.6004 14.7992 59.8004 13.7992 59.8004Z" fill="#509B37" stroke="#509B37" stroke-width="0.5"></path><path d="M47.4 49.3008V48.5008C61.9 47.1008 62.4 32.0008 62.6 24.0008C62.6 23.0008 62.7 22.0008 62.7 21.3008V20.7008L62.1 20.9008C60.8 21.3008 59.6 21.8008 58.3 22.3008C51.7 25.1008 46.8 29.0008 44 33.8008C43.9 33.9008 43.9 34.0008 43.9 34.0008C40.7 39.6008 41.3 44.5008 41.4 44.7008C41.5 45.1008 41.2 45.5008 40.7 45.6008H40.6C40.2 45.6008 39.9 45.3008 39.8 44.9008C39.8 44.8008 39.2 39.7008 42.3 33.9008L42.4 33.7008L36.6 25.7008H36.4L33.2 25.3008C32.8 25.3008 32.5 24.9008 32.5 24.4008C32.5 24.0008 32.9 23.7008 33.3 23.7008L35.4 23.9008L31.6 18.6008C31.3 18.3008 31.4 17.8008 31.8 17.5008C31.9 17.4008 32.1 17.4008 32.3 17.4008C32.6 17.4008 32.8 17.5008 32.9 17.7008L39.9 27.3008L40.7 24.5008C40.8 24.2008 41.1 23.9008 41.4 23.9008C41.5 23.9008 41.5 23.9008 41.6 23.9008C41.8 24.0008 42 24.1008 42.1 24.3008C42.2 24.5008 42.2 24.7008 42.2 24.9008L41.1 28.9008L43.4 32.2008L43.7 31.7008C45.2 29.5008 47.2 27.4008 49.6 25.5008L49.7 25.4008L49.4 18.3008L46.7 15.3008C46.4 15.0008 46.4 14.5008 46.8 14.2008C46.9 14.1008 47.1 14.0008 47.3 14.0008C47.5 14.0008 47.7 14.1008 47.9 14.3008L49.3 15.8008L48.9 8.60078C48.9 8.20078 49.2 7.80078 49.6 7.80078C50 7.80078 50.4 8.10078 50.4 8.50078L50.6 11.9008L51.4 11.0008C51.5 10.8008 51.8 10.7008 52 10.7008C52.2 10.7008 52.4 10.8008 52.5 10.9008C52.7 11.0008 52.7 11.2008 52.8 11.4008C52.8 11.6008 52.7 11.8008 52.6 12.0008L50.8 14.0008L51.1 20.5008L53.2 18.3008C53.3 18.1008 53.6 18.1008 53.8 18.1008C54 18.1008 54.2 18.2008 54.3 18.3008C54.6 18.6008 54.6 19.1008 54.3 19.4008L51.2 22.6008L51.3 24.2008L51.9 23.8008C53.5 22.8008 55.2 21.9008 57.1 21.0008L57.3 20.9008V20.6008C57.2 17.4008 56.1 10.9008 49.4 3.90078L49 3.80078L48.7 4.20078C45 9.10078 42.5 13.7008 41.3 17.8008L41.2 18.1008L41.4 18.3008C45.9 21.6008 47.5 24.9008 47.5 25.0008C47.6 25.2008 47.6 25.4008 47.5 25.6008C47.4 25.8008 47.3 26.0008 47.1 26.0008C47 26.0008 46.9 26.1008 46.8 26.1008C46.5 26.1008 46.2 25.9008 46.1 25.7008C45.9 25.4008 42.2 17.7008 29.4 14.7008L28.9 14.6008V15.1008C28.1 28.3008 31 36.7008 37.5 40.0008C37.9 40.2008 38 40.7008 37.8 41.1008C37.7 41.4008 37.4 41.5008 37.1 41.5008C37 41.5008 36.9 41.5008 36.7 41.4008C29.5 37.7008 26.3 28.6008 27.3 14.4008C27.3 14.0008 27.5 13.6008 27.9 13.3008C28.2 13.1008 28.5 13.0008 28.8 13.0008C28.9 13.0008 29 13.0008 29.1 13.0008C32.9 13.8008 36.4 15.2008 39.3 17.0008L39.7 17.3008L39.9 16.8008C41.9 10.4008 46.2 4.80078 47.6 2.90078C47.9 2.50078 48.3 2.30078 48.7 2.30078H48.8C49.2 2.30078 49.6 2.50078 49.8 2.70078C56.7 9.80078 58.2 16.6008 58.5 20.0008V20.5008L59.2 20.2008C60.1 19.8008 61.1 19.5008 62.1 19.1008C62.2 19.1008 62.4 19.0008 62.5 19.0008C62.8 19.0008 63.2 19.1008 63.4 19.3008C63.8 19.6008 64 20.1008 63.9 20.6008C63.8 21.4008 63.8 22.7008 63.7 23.9008C63.5 31.2008 63 48.4008 47 50.0008L47.4 49.3008Z" fill="#509B37" stroke="#509B37" stroke-width="0.5"></path><path d="M42.6008 51.6C42.1008 51.6 41.8008 51.2 41.8008 50.8C42.0008 47.4 44.0008 43 48.0008 37.6L48.1008 37.5L47.5008 33.4C47.4008 33 47.7008 32.6 48.2008 32.5H48.3008C48.7008 32.5 49.0008 32.8 49.1008 33.2L49.5008 35.8L50.1008 35.1C50.9008 34.1 51.6008 33.3 52.4008 32.4C55.5008 28.9 58.0008 26.4 58.3008 26.2C58.4008 26.1 58.6008 26 58.8008 26C59.0008 26 59.2008 26.1 59.4008 26.2C59.7008 26.5 59.7008 27 59.4008 27.3C59.4008 27.3 57.6008 29.1 55.2008 31.6L54.6008 32.2L57.7008 32.3C57.9008 32.3 58.1008 32.4 58.2008 32.5C58.3008 32.7 58.4008 32.8 58.4008 33.1C58.4008 33.5 58.0008 33.9 57.6008 33.9L53.3008 33.7L53.0008 33.9C51.2008 35.9 49.7008 37.9 48.4008 39.8L48.0008 40.4H51.7008C52.1008 40.4 52.5008 40.8 52.5008 41.2C52.5008 41.6 52.1008 42 51.6008 42H47.0008L46.8008 42.2C44.6008 45.7 43.5008 48.6 43.4008 50.8C43.4008 51.2 43.0008 51.6 42.6008 51.6Z" fill="#509B37" stroke="#509B37" stroke-width="0.5"></path></svg>